<svg xmlns="http://www.w3.org/2000/svg" width="512" height="512"><path d="M309.333 0H202.667c-17.673 0-32 14.327-32 32v64c0 5.891 4.776 10.667 10.667 10.667h149.333c5.891 0 10.667-4.776 10.667-10.667V32c-.001-17.673-14.328-32-32.001-32zM138.667 426.667h234.667c5.891 0 10.667 4.776 10.667 10.667v64c0 5.891-4.776 10.667-10.667 10.667H138.667c-5.891 0-10.667-4.776-10.667-10.667v-64c0-5.892 4.776-10.667 10.667-10.667z" data-original="#FFA000" data-old_color="#ffffff" fill="#fff"/><path d="M138.667 85.333h234.667c53.019 0 96 42.981 96 96V352c0 53.019-42.981 96-96 96H138.667c-53.019 0-96-42.981-96-96V181.333c0-53.019 42.98-96 96-96z" data-original="#FFC107" data-old_color="#ffffff" fill="#fff"/><path d="M256 362.667a105.942 105.942 0 0 1-75.413-31.232c-4.092-4.237-3.975-10.99.262-15.083 4.134-3.992 10.687-3.992 14.82 0 33.783 32.183 86.879 32.183 120.661 0 4.237-4.092 10.99-3.975 15.083.262 3.992 4.134 3.992 10.687 0 14.82A105.94 105.94 0 0 1 256 362.667zM192 256c-11.782 0-21.333-9.551-21.333-21.333s9.551-21.333 21.333-21.333c11.782 0 21.333 9.551 21.333 21.333S203.782 256 192 256zM320 256c-11.782 0-21.333-9.551-21.333-21.333s9.551-21.333 21.333-21.333c11.782 0 21.333 9.551 21.333 21.333S331.782 256 320 256z" data-original="#455A64" data-old_color="#455A64"/><path d="M373.333 448H138.667c-53.019 0-96-42.981-96-96V181.333c0-53.019 42.981-96 96-96h234.667c53.019 0 96 42.981 96 96V352c-.001 53.019-42.981 96-96.001 96zM138.667 106.667C97.429 106.667 64 140.096 64 181.333V352c0 41.237 33.429 74.667 74.667 74.667h234.667c41.237 0 74.666-33.43 74.666-74.667V181.333c0-41.237-33.429-74.667-74.667-74.667H138.667z" data-original="#000000" class="active-path"/><path d="M330.667 106.667H181.333c-5.891 0-10.667-4.776-10.667-10.667V32c0-17.673 14.327-32 32-32h106.667c17.673 0 32 14.327 32 32v64c0 5.891-4.775 10.667-10.666 10.667zM192 85.333h128V32c0-5.891-4.776-10.667-10.667-10.667H202.667C196.776 21.333 192 26.109 192 32v53.333zM373.333 512H138.667c-5.891 0-10.667-4.776-10.667-10.667v-64c0-5.891 4.776-10.667 10.667-10.667h234.667c5.891 0 10.667 4.776 10.667 10.667v64C384 507.224 379.224 512 373.333 512zm-224-21.333h213.333V448H149.333v42.667zM256 362.667a105.988 105.988 0 0 1-75.435-31.253c-4.092-4.237-3.975-10.99.262-15.083 4.134-3.992 10.687-3.992 14.82 0 33.785 32.196 86.897 32.196 120.683 0 4.237-4.092 10.99-3.975 15.083.262 3.992 4.134 3.992 10.687 0 14.82A105.983 105.983 0 0 1 256 362.667zM192 256c-11.782 0-21.333-9.551-21.333-21.333s9.551-21.333 21.333-21.333c11.782 0 21.333 9.551 21.333 21.333S203.782 256 192 256zM320 256c-11.782 0-21.333-9.551-21.333-21.333s9.551-21.333 21.333-21.333c11.782 0 21.333 9.551 21.333 21.333S331.782 256 320 256z" data-original="#000000" class="active-path"/></svg>