<svg width="437" height="197" fill="none" xmlns="http://www.w3.org/2000/svg"><path d="M36.953 145.25c-.534 3.333-.934 6.2-1.2 8.6l-.9 7.8c-.5 4.433-.867 7.933-1.1 10.5-.234 2.567-.35 4.65-.35 6.25 0 .867.083 1.533.25 2 .166.433.533.65 1.1.65.633 0 1.266-.4 1.9-1.2.666-.8 1.233-2.017 1.7-3.65l1.45.3c-.167.933-.534 1.95-1.1 3.05a8.735 8.735 0 0 1-2.2 2.85c-.9.767-1.967 1.15-3.2 1.15-1.3 0-2.267-.4-2.9-1.2-.634-.8-.95-1.9-.95-3.3 0-1.8.25-3.95.75-6.45h-.15c-1.234 4.167-2.667 7.033-4.3 8.6-1.6 1.567-3.284 2.35-5.05 2.35-2.2 0-3.884-.883-5.05-2.65-1.134-1.8-1.7-4.083-1.7-6.85 0-3.3.55-6.2 1.65-8.7 1.1-2.5 2.733-4.433 4.9-5.8 2.2-1.4 4.866-2.1 8-2.1 1.066 0 2 .067 2.8.2l.75-6.2c.166-1.233.35-2.25.55-3.05l-3.65.2.2-2c2 0 3.433-.117 4.3-.35.866-.233 1.55-.567 2.05-1h1.45zm-9.3 14c-2.2 0-4 .7-5.4 2.1-1.4 1.4-2.417 3.167-3.05 5.3-.634 2.1-.95 4.283-.95 6.55 0 2.467.266 4.417.8 5.85.566 1.433 1.466 2.15 2.7 2.15 1 0 2.033-.583 3.1-1.75 1.066-1.2 2.033-2.767 2.9-4.7.866-1.933 1.55-4 2.05-6.2.4-1.833.816-4.767 1.25-8.8-.9-.333-2.034-.5-3.4-.5zm21.634-12.6c.767 0 1.4.267 1.9.8s.75 1.217.75 2.05c0 .833-.267 1.517-.8 2.05-.533.5-1.167.75-1.9.75-.733 0-1.367-.25-1.9-.75-.5-.533-.75-1.217-.75-2.05 0-.833.267-1.517.8-2.05.533-.533 1.167-.8 1.9-.8zm-2.85 10.8c1.367 0 2.4.467 3.1 1.4.733.933 1.1 2.2 1.1 3.8 0 1.3-.283 3.583-.85 6.85-.333 2.1-.6 3.867-.8 5.3-.167 1.4-.25 2.783-.25 4.15 0 1.4.517 2.1 1.55 2.1.633 0 1.283-.4 1.95-1.2.667-.8 1.233-2.017 1.7-3.65l1.4.3c-.4 1.8-1.117 3.433-2.15 4.9-1.033 1.433-2.383 2.15-4.05 2.15-3 0-4.5-1.567-4.5-4.7 0-1.3.083-2.567.25-3.8.167-1.233.417-2.767.75-4.6.333-2.033.567-3.6.7-4.7.167-1.133.25-2.317.25-3.55 0-.567-.117-1.083-.35-1.55-.2-.467-.55-.7-1.05-.7-.633 0-1.283.4-1.95 1.2-.667.8-1.233 2.017-1.7 3.65l-1.4-.3c.3-1.633.983-3.217 2.05-4.75 1.067-1.533 2.483-2.3 4.25-2.3zm26.061 0c1.167 0 2.317.083 3.45.25 1.167.133 2.133.333 2.9.6-.167 2.733-.6 8.2-1.3 16.4l-.65 7.6c-.4 4.733-1.7 8.283-3.9 10.65-2.2 2.4-5.167 3.6-8.9 3.6-.967 0-2.017-.133-3.15-.4s-2.117-.717-2.95-1.35c-.833-.633-1.267-1.45-1.3-2.45 0-.7.217-1.3.65-1.8.467-.5 1.033-.75 1.7-.75.633 0 1.167.2 1.6.6.433.4.65.967.65 1.7 0 .433-.1.867-.3 1.3.3.467.783.817 1.45 1.05.667.233 1.333.35 2 .35 2.367 0 4.167-.817 5.4-2.45 1.267-1.6 2.117-3.533 2.55-5.8.433-2.267.8-5.2 1.1-8.8.2-2.467.383-4.267.55-5.4h-.15c-1.267 4.367-2.667 7.333-4.2 8.9-1.533 1.533-3.217 2.3-5.05 2.3-2.233 0-3.917-.883-5.05-2.65s-1.7-4.117-1.7-7.05c0-2.967.533-5.683 1.6-8.15 1.067-2.5 2.7-4.5 4.9-6s4.9-2.25 8.1-2.25zm-.8 1.8c-2.267 0-4.133.717-5.6 2.15-1.433 1.433-2.467 3.2-3.1 5.3-.6 2.067-.9 4.167-.9 6.3 0 2.5.283 4.5.85 6 .567 1.467 1.483 2.2 2.75 2.2 1.467 0 2.883-1.133 4.25-3.4 1.4-2.3 2.55-5.117 3.45-8.45.9-3.367 1.433-6.517 1.6-9.45-.867-.433-1.967-.65-3.3-.65zm19.679-12.6c.767 0 1.4.267 1.9.8s.75 1.217.75 2.05c0 .833-.267 1.517-.8 2.05-.533.5-1.167.75-1.9.75-.733 0-1.367-.25-1.9-.75-.5-.533-.75-1.217-.75-2.05 0-.833.267-1.517.8-2.05.533-.533 1.167-.8 1.9-.8zm-2.85 10.8c1.367 0 2.4.467 3.1 1.4.733.933 1.1 2.2 1.1 3.8 0 1.3-.283 3.583-.85 6.85-.333 2.1-.6 3.867-.8 5.3-.167 1.4-.25 2.783-.25 4.15 0 1.4.517 2.1 1.55 2.1.633 0 1.283-.4 1.95-1.2.667-.8 1.233-2.017 1.7-3.65l1.4.3c-.4 1.8-1.117 3.433-2.15 4.9-1.033 1.433-2.383 2.15-4.05 2.15-3 0-4.5-1.567-4.5-4.7 0-1.3.083-2.567.25-3.8.167-1.233.417-2.767.75-4.6.333-2.033.567-3.6.7-4.7.167-1.133.25-2.317.25-3.55 0-.567-.117-1.083-.35-1.55-.2-.467-.55-.7-1.05-.7-.633 0-1.283.4-1.95 1.2-.667.8-1.233 2.017-1.7 3.65l-1.4-.3c.3-1.633.983-3.217 2.05-4.75 1.067-1.533 2.483-2.3 4.25-2.3zm19.511.55h7.95l-.15 1.9-8 .1-.35 3.2c-.733 6.333-1.1 10.817-1.1 13.45 0 1.3.15 2.35.45 3.15.3.8.933 1.2 1.9 1.2 1.733 0 3.3-1.167 4.7-3.5l1.3.85c-1.033 1.767-2.117 3.083-3.25 3.95-1.1.833-2.417 1.25-3.95 1.25-1.833 0-3.167-.55-4-1.65-.8-1.1-1.2-2.517-1.2-4.25 0-1.933.117-4.467.35-7.6.233-3.167.55-6.5.95-10l-4.45.05.15-2.1c2 0 3.617-.583 4.85-1.75 1.233-1.2 2.183-2.967 2.85-5.3h1.9l-.9 7.05zm24.713-.55c2.266 0 4.5.283 6.7.85-1.467 10.867-2.2 17.533-2.2 20 0 .867.083 1.55.25 2.05.166.467.55.7 1.15.7.633 0 1.283-.4 1.95-1.2.666-.8 1.233-2.017 1.7-3.65l1.4.3c-.167.933-.534 1.95-1.1 3.05a8.75 8.75 0 0 1-2.2 2.85c-.9.767-1.967 1.15-3.2 1.15-2.467 0-3.7-1.5-3.7-4.5 0-1.467.3-3.7.9-6.7h-.15c-1.4 4.4-2.934 7.367-4.6 8.9-1.667 1.533-3.384 2.3-5.15 2.3-1.934 0-3.484-.7-4.65-2.1-1.134-1.4-1.7-3.6-1.7-6.6 0-3.2.55-6.117 1.65-8.75 1.1-2.633 2.75-4.733 4.95-6.3 2.2-1.567 4.866-2.35 8-2.35zm-1.55 1.8c-1.934 0-3.567.7-4.9 2.1-1.334 1.367-2.334 3.183-3 5.45-.634 2.233-.95 4.633-.95 7.2 0 4.9 1.083 7.35 3.25 7.35 1.466 0 2.933-1.15 4.4-3.45 1.466-2.3 2.683-5.133 3.65-8.5.966-3.4 1.45-6.583 1.45-9.55-1-.4-2.3-.6-3.9-.6zm22.642-10.45c-.4 2.333-.65 3.983-.75 4.95-.533 3.9-1.05 8.433-1.55 13.6-.466 5.133-.7 8.833-.7 11.1 0 .833.084 1.483.25 1.95.167.433.534.65 1.1.65.634 0 1.284-.383 1.95-1.15.667-.8 1.234-2.033 1.7-3.7l1.4.35c-.166.933-.516 1.95-1.05 3.05a8.893 8.893 0 0 1-2.2 2.8c-.9.767-1.966 1.15-3.2 1.15-1.4 0-2.416-.367-3.05-1.1-.633-.733-.95-1.85-.95-3.35 0-2.2.284-6.25.85-12.15.6-5.9 1.217-11.183 1.85-15.85l.45-2.7-3.55.2.25-2c1.967 0 3.384-.117 4.25-.35.867-.233 1.567-.567 2.1-1h1.4l-.55 3.55zm28.495 8.65c1.967 0 3.684.467 5.15 1.4 1.5.9 2.25 2.067 2.25 3.5 0 .7-.2 1.267-.6 1.7-.4.4-.9.6-1.5.6-.566 0-1.05-.2-1.45-.6a2.01 2.01 0 0 1-.55-1.4c0-.567.15-1.083.45-1.55-.2-.6-.633-1.083-1.3-1.45-.666-.367-1.533-.55-2.6-.55-1.166 0-2.233.383-3.2 1.15-.933.733-1.4 1.667-1.4 2.8 0 .967.434 1.833 1.3 2.6.867.767 2.2 1.667 4 2.7 1.5.867 2.717 1.65 3.65 2.35a9.44 9.44 0 0 1 2.35 2.4c.667.933 1 1.983 1 3.15 0 1.4-.4 2.65-1.2 3.75-.766 1.1-1.866 1.967-3.3 2.6-1.433.633-3.066.95-4.9.95-2.166 0-4.05-.483-5.65-1.45-1.566-.967-2.35-2.267-2.35-3.9 0-.7.2-1.283.6-1.75.434-.467.95-.7 1.55-.7.634 0 1.134.217 1.5.65.367.4.55.883.55 1.45s-.15 1.083-.45 1.55c.234.7.75 1.267 1.55 1.7.8.4 1.667.6 2.6.6 1.767 0 3.1-.4 4-1.2.934-.833 1.4-2.017 1.4-3.55 0-1.1-.466-2.067-1.4-2.9-.933-.833-2.35-1.8-4.25-2.9-2.133-1.233-3.75-2.35-4.85-3.35-1.066-1-1.6-2.2-1.6-3.6 0-1.2.367-2.317 1.1-3.35.734-1.033 1.75-1.85 3.05-2.45 1.334-.633 2.834-.95 4.5-.95zm19.987.55h7.95l-.15 1.9-8 .1-.35 3.2c-.733 6.333-1.1 10.817-1.1 13.45 0 1.3.15 2.35.45 3.15.3.8.933 1.2 1.9 1.2 1.733 0 3.3-1.167 4.7-3.5l1.3.85c-1.033 1.767-2.117 3.083-3.25 3.95-1.1.833-2.417 1.25-3.95 1.25-1.833 0-3.167-.55-4-1.65-.8-1.1-1.2-2.517-1.2-4.25 0-1.933.117-4.467.35-7.6.233-3.167.55-6.5.95-10l-4.45.05.15-2.1c2 0 3.617-.583 4.85-1.75 1.233-1.2 2.183-2.967 2.85-5.3h1.9l-.9 7.05zm22.563-.55c1.8 0 3.417.433 4.85 1.3 1.467.867 2.6 2.133 3.4 3.8.833 1.633 1.25 3.583 1.25 5.85 0 2.733-.5 5.25-1.5 7.55-.967 2.3-2.383 4.15-4.25 5.55-1.833 1.367-4 2.05-6.5 2.05-3.167 0-5.567-1.033-7.2-3.1-1.6-2.1-2.4-4.8-2.4-8.1 0-2.733.5-5.233 1.5-7.5 1-2.267 2.433-4.067 4.3-5.4 1.867-1.333 4.05-2 6.55-2zm-.8 1.85c-1.467 0-2.75.533-3.85 1.6-1.067 1.033-1.883 2.467-2.45 4.3-.567 1.8-.85 3.817-.85 6.05 0 2.767.45 5.2 1.35 7.3.9 2.067 2.367 3.1 4.4 3.1 1.7 0 3.083-.65 4.15-1.95 1.1-1.3 1.9-2.9 2.4-4.8s.75-3.75.75-5.55c0-2.8-.45-5.167-1.35-7.1-.867-1.967-2.383-2.95-4.55-2.95zm31.924-1.85c1.033 0 1.867.267 2.5.8.667.5 1 1.2 1 2.1 0 .633-.217 1.2-.65 1.7-.433.467-.983.7-1.65.7-.6 0-1.117-.183-1.55-.55-.433-.367-.683-.883-.75-1.55a2.375 2.375 0 0 0-.55-.05c-1.4 0-2.767 1.117-4.1 3.35-1.333 2.233-2.417 4.95-3.25 8.15-.833 3.2-1.25 6.117-1.25 8.75 0 .3.033 1.017.1 2.15h-4.15c-.033-.3-.05-.733-.05-1.3 0-2.033.267-5.45.8-10.25l.65-5.8c.2-1.733.3-2.883.3-3.45 0-.7-.1-1.25-.3-1.65-.167-.4-.517-.6-1.05-.6-.633 0-1.283.4-1.95 1.2-.667.8-1.233 2.017-1.7 3.65l-1.4-.3c.167-.933.517-1.95 1.05-3.05a9.122 9.122 0 0 1 2.2-2.8c.933-.8 2.017-1.2 3.25-1.2 1.3 0 2.233.417 2.8 1.25.567.833.85 2.033.85 3.6 0 1.533-.25 3.55-.75 6.05h.15c1.367-4.033 2.833-6.85 4.4-8.45 1.567-1.633 3.25-2.45 5.05-2.45zm23.339 0c1.4 0 2.416.617 3.05 1.85.633 1.233.95 2.75.95 4.55 0 3.033-.6 6.217-1.8 9.55-1.2 3.3-2.817 6.783-4.85 10.45-2.4 4.4-4.684 7.617-6.85 9.65-2.167 2.033-4.284 3.05-6.35 3.05-1.2 0-2.184-.3-2.95-.9-.734-.6-1.1-1.35-1.1-2.25 0-.7.216-1.267.65-1.7.433-.4.9-.6 1.4-.6.7 0 1.233.217 1.6.65.4.467.583 1.117.55 1.95.466.233.833.35 1.1.35 1.266.067 2.616-.733 4.05-2.4 1.466-1.667 2.666-3.3 3.6-4.9-.6-4.1-1.434-8.233-2.5-12.4-1.067-4.167-2.267-7.867-3.6-11.1-.4-.867-.75-1.5-1.05-1.9-.3-.433-.717-.65-1.25-.65-.567 0-1.034.35-1.4 1.05-.334.7-.5 1.65-.5 2.85 0 .567.016 1 .05 1.3l-1.6.2c-.034-.333-.05-.833-.05-1.5 0-1.967.35-3.65 1.05-5.05.733-1.4 1.916-2.1 3.55-2.1 1.5 0 2.666.533 3.5 1.6.833 1.033 1.55 2.383 2.15 4.05.666 1.8 1.266 3.75 1.8 5.85.533 2.067 1.166 4.733 1.9 8 .2.967.45 2.667.75 5.1h.1a55.4 55.4 0 0 0 4.05-8.8c1.1-3.1 1.65-5.9 1.65-8.4 0-.8-.084-1.517-.25-2.15-.134-.633-.3-1.1-.5-1.4-.3.2-.717.3-1.25.3-.6 0-1.084-.183-1.45-.55-.367-.4-.55-.867-.55-1.4 0-.7.233-1.233.7-1.6.466-.4 1.016-.6 1.65-.6zm16.333.55h7.95l-.15 1.9-8 .1-.35 3.2c-.733 6.333-1.1 10.817-1.1 13.45 0 1.3.15 2.35.45 3.15.3.8.934 1.2 1.9 1.2 1.734 0 3.3-1.167 4.7-3.5l1.3.85c-1.033 1.767-2.116 3.083-3.25 3.95-1.1.833-2.416 1.25-3.95 1.25-1.833 0-3.166-.55-4-1.65-.8-1.1-1.2-2.517-1.2-4.25 0-1.933.117-4.467.35-7.6.234-3.167.55-6.5.95-10l-4.45.05.15-2.1c2 0 3.617-.583 4.85-1.75 1.234-1.2 2.184-2.967 2.85-5.3h1.9l-.9 7.05zm22.363-.55c2 0 3.667.467 5 1.4 1.334.933 2 2.383 2 4.35 0 2.467-1.483 4.383-4.45 5.75-2.966 1.367-6.4 2.267-10.3 2.7 0 3.133.467 5.483 1.4 7.05.934 1.567 2.367 2.35 4.3 2.35 1.534 0 3.017-.5 4.45-1.5 1.434-1.033 2.684-2.55 3.75-4.55l1.65.95c-1.4 2.633-2.966 4.567-4.7 5.8-1.733 1.2-3.733 1.8-6 1.8-3.066 0-5.383-.95-6.95-2.85-1.533-1.933-2.3-4.583-2.3-7.95 0-2.7.45-5.2 1.35-7.5.934-2.333 2.317-4.217 4.15-5.65 1.834-1.433 4.05-2.15 6.65-2.15zm-.7 1.7c-2.133 0-3.783 1.033-4.95 3.1-1.166 2.067-1.85 4.6-2.05 7.6 2.9-.4 5.384-1.2 7.45-2.4 2.067-1.2 3.1-2.7 3.1-4.5 0-1.1-.316-2-.95-2.7-.6-.733-1.466-1.1-2.6-1.1zm20.578-10.35c-.4 2.333-.65 3.983-.75 4.95-.533 3.9-1.05 8.433-1.55 13.6-.466 5.133-.7 8.833-.7 11.1 0 .833.084 1.483.25 1.95.167.433.534.65 1.1.65.634 0 1.284-.383 1.95-1.15.667-.8 1.234-2.033 1.7-3.7l1.4.35c-.166.933-.516 1.95-1.05 3.05a8.893 8.893 0 0 1-2.2 2.8c-.9.767-1.966 1.15-3.2 1.15-1.4 0-2.416-.367-3.05-1.1-.633-.733-.95-1.85-.95-3.35 0-2.2.284-6.25.85-12.15.6-5.9 1.217-11.183 1.85-15.85l.45-2.7-3.55.2.25-2c1.967 0 3.384-.117 4.25-.35.867-.233 1.567-.567 2.1-1h1.4l-.55 3.55zm14.161 0c-.4 2.333-.65 3.983-.75 4.95-.534 3.9-1.05 8.433-1.55 13.6-.467 5.133-.7 8.833-.7 11.1 0 .833.083 1.483.25 1.95.166.433.533.65 1.1.65.633 0 1.283-.383 1.95-1.15.666-.8 1.233-2.033 1.7-3.7l1.4.35c-.167.933-.517 1.95-1.05 3.05a8.922 8.922 0 0 1-2.2 2.8c-.9.767-1.967 1.15-3.2 1.15-1.4 0-2.417-.367-3.05-1.1-.634-.733-.95-1.85-.95-3.35 0-2.2.283-6.25.85-12.15.6-5.9 1.216-11.183 1.85-15.85l.45-2.7-3.55.2.25-2c1.966 0 3.383-.117 4.25-.35.866-.233 1.566-.567 2.1-1h1.4l-.55 3.55zm13.51-2.15c.766 0 1.4.267 1.9.8s.75 1.217.75 2.05c0 .833-.267 1.517-.8 2.05-.534.5-1.167.75-1.9.75-.734 0-1.367-.25-1.9-.75-.5-.533-.75-1.217-.75-2.05 0-.833.266-1.517.8-2.05.533-.533 1.166-.8 1.9-.8zm-2.85 10.8c1.366 0 2.4.467 3.1 1.4.733.933 1.1 2.2 1.1 3.8 0 1.3-.284 3.583-.85 6.85-.334 2.1-.6 3.867-.8 5.3-.167 1.4-.25 2.783-.25 4.15 0 1.4.516 2.1 1.55 2.1.633 0 1.283-.4 1.95-1.2.666-.8 1.233-2.017 1.7-3.65l1.4.3c-.4 1.8-1.117 3.433-2.15 4.9-1.034 1.433-2.384 2.15-4.05 2.15-3 0-4.5-1.567-4.5-4.7 0-1.3.083-2.567.25-3.8.166-1.233.416-2.767.75-4.6.333-2.033.566-3.6.7-4.7.166-1.133.25-2.317.25-3.55 0-.567-.117-1.083-.35-1.55-.2-.467-.55-.7-1.05-.7-.634 0-1.284.4-1.95 1.2-.667.8-1.234 2.017-1.7 3.65l-1.4-.3c.3-1.633.983-3.217 2.05-4.75 1.066-1.533 2.483-2.3 4.25-2.3zm29.361 0c1.866 0 3.233.6 4.1 1.8.9 1.2 1.35 2.767 1.35 4.7 0 2.233-.317 5.433-.95 9.6-.367 2.633-.55 4.367-.55 5.2 0 .733.083 1.3.25 1.7.2.4.566.6 1.1.6.633 0 1.283-.383 1.95-1.15.666-.8 1.233-2.033 1.7-3.7l1.4.35c-.167.933-.534 1.95-1.1 3.05a8.922 8.922 0 0 1-2.2 2.8c-.9.767-1.967 1.15-3.2 1.15-1.5 0-2.55-.383-3.15-1.15-.6-.8-.9-2.017-.9-3.65 0-1.233.216-3.433.65-6.6.6-4.067.9-7.167.9-9.3 0-.767-.184-1.467-.55-2.1-.334-.633-.934-.95-1.8-.95-1.467 0-2.967 1.117-4.5 3.35-1.534 2.2-2.817 4.933-3.85 8.2-1 3.233-1.5 6.233-1.5 9 0 .633.033 1.517.1 2.65h-4.2c-.034-.3-.05-.733-.05-1.3 0-.8.066-1.917.2-3.35.166-1.433.4-3.317.7-5.65 0-.2.033-.533.1-1 .033-.433.083-.883.15-1.35.066-.467.116-.933.15-1.4.233-2.033.4-3.517.5-4.45.1-.933.15-1.7.15-2.3 0-.7-.1-1.25-.3-1.65-.167-.4-.517-.6-1.05-.6-.634 0-1.284.4-1.95 1.2-.667.8-1.234 2.017-1.7 3.65l-1.4-.3c.166-.933.516-1.95 1.05-3.05a9.107 9.107 0 0 1 2.2-2.8c.933-.8 2.016-1.2 3.25-1.2 2.5 0 3.75 1.717 3.75 5.15 0 .967-.1 2.033-.3 3.2a86.368 86.368 0 0 1-.5 3.05h.15c1.6-4.267 3.183-7.233 4.75-8.9 1.6-1.667 3.3-2.5 5.1-2.5zm27.461 0c1.167 0 2.317.083 3.45.25 1.167.133 2.134.333 2.9.6-.166 2.733-.6 8.2-1.3 16.4l-.65 7.6c-.4 4.733-1.7 8.283-3.9 10.65-2.2 2.4-5.166 3.6-8.9 3.6-.966 0-2.016-.133-3.15-.4-1.133-.267-2.116-.717-2.95-1.35-.833-.633-1.266-1.45-1.3-2.45 0-.7.217-1.3.65-1.8.467-.5 1.034-.75 1.7-.75.634 0 1.167.2 1.6.6.434.4.65.967.65 1.7 0 .433-.1.867-.3 1.3.3.467.784.817 1.45 1.05.667.233 1.334.35 2 .35 2.367 0 4.167-.817 5.4-2.45 1.267-1.6 2.117-3.533 2.55-5.8.434-2.267.8-5.2 1.1-8.8.2-2.467.384-4.267.55-5.4h-.15c-1.266 4.367-2.666 7.333-4.2 8.9-1.533 1.533-3.216 2.3-5.05 2.3-2.233 0-3.916-.883-5.05-2.65-1.133-1.767-1.7-4.117-1.7-7.05 0-2.967.534-5.683 1.6-8.15 1.067-2.5 2.7-4.5 4.9-6s4.9-2.25 8.1-2.25zm-.8 1.8c-2.266 0-4.133.717-5.6 2.15-1.433 1.433-2.466 3.2-3.1 5.3-.6 2.067-.9 4.167-.9 6.3 0 2.5.284 4.5.85 6 .567 1.467 1.484 2.2 2.75 2.2 1.467 0 2.884-1.133 4.25-3.4 1.4-2.3 2.55-5.117 3.45-8.45.9-3.367 1.434-6.517 1.6-9.45-.866-.433-1.966-.65-3.3-.65zM22.824 44.76c7.552 0 13.024.48 16.416 1.44 3.456.896 5.92 1.984 7.392 3.264 3.264 2.816 4.896 7.136 4.896 12.96 0 4.352-2.336 8.48-7.008 12.384 5.952 3.008 8.928 8.608 8.928 16.8 0 6.4-2.112 11.168-6.336 14.304-4.16 3.072-10.4 4.768-18.72 5.088H1.032l-.96-7.968c.832-1.088 2.592-2.144 5.28-3.168V55.992c-2.624-.96-4.384-2.048-5.28-3.264l.96-7.968h21.792zm4.896 37.536h-8.544v18.24H25.8c4.352 0 7.648-.64 9.888-1.92 2.24-1.28 3.36-3.584 3.36-6.912s-.896-5.728-2.688-7.2c-1.728-1.472-4.608-2.208-8.64-2.208zm-3.552-27.072h-4.992v16.608h7.872c3.264 0 5.76-.832 7.488-2.496 1.728-1.664 2.592-3.68 2.592-6.048 0-2.432-.608-4.256-1.824-5.472-1.216-1.216-2.624-1.952-4.224-2.208-1.6-.256-3.904-.384-6.912-.384zM59.898 63c3.584-.832 6.912-1.248 9.984-1.248s5.664.096 7.776.288v38.304c2.496.96 4.256 2.048 5.28 3.264l-.96 7.392h-22.08l-.96-7.392c.896-1.216 2.656-2.304 5.28-3.264V73.656c-2.24-.768-4-1.856-5.28-3.264l.96-7.392zm10.848-6.624c-5.312 0-7.968-2.4-7.968-7.2 0-4.864 2.656-7.296 7.968-7.296 5.376 0 8.064 2.432 8.064 7.296 0 4.8-2.688 7.2-8.064 7.2zm38.111 64.8c5.696 0 8.544-3.424 8.544-10.272v-4.224c-3.136 1.92-7.072 2.88-11.808 2.88-6.016 0-10.656-1.76-13.92-5.28-3.2-3.52-4.8-9.376-4.8-17.568 0-16.32 7.488-24.48 22.464-24.48 3.84 0 7.424.832 10.752 2.496.64-1.152 1.6-1.728 2.88-1.728h7.872v47.232c0 7.04-1.76 12.256-5.28 15.648-3.456 3.392-8.832 5.088-16.128 5.088-3.84 0-7.808-.448-11.904-1.344-4.096-.896-7.2-2.016-9.312-3.36a15.636 15.636 0 0 1-.096-1.728c0-3.52.832-6.912 2.496-10.176h8.448c.704 1.344 1.216 3.136 1.536 5.376 2.432.96 5.184 1.44 8.256 1.44zm-8.736-35.04c0 4.8.64 8.16 1.92 10.08 1.344 1.92 3.584 2.88 6.72 2.88 3.2 0 6.08-.896 8.64-2.688V73.656c-2.56-1.088-5.344-1.632-8.352-1.632-5.952 0-8.928 4.704-8.928 14.112zM297.528 44.856v13.728l-6.048.768c-.832-.64-1.632-1.984-2.4-4.032h-11.52v44.544c2.56 1.024 4.32 2.08 5.28 3.168l-.96 7.968h-22.464l-.96-7.968c.832-1.088 2.592-2.144 5.28-3.168V55.32h-11.52c-.768 2.048-1.568 3.392-2.4 4.032l-6.048-.768V44.856h53.76zm26.32 66.912c-7.68 0-13.472-2.048-17.376-6.144-3.84-4.096-5.76-10.048-5.76-17.856 0-4.736.672-8.8 2.016-12.192 1.344-3.456 3.168-6.112 5.472-7.968 4.48-3.584 9.697-5.376 15.649-5.376s10.496 1.536 13.632 4.608c3.2 3.008 4.8 8.448 4.8 16.32 0 4.608-2.272 6.912-6.816 6.912h-20.832c.256 4.032 1.28 6.88 3.072 8.544 1.856 1.664 4.768 2.496 8.736 2.496 2.176 0 4.256-.256 6.24-.768s3.424-1.024 4.32-1.536l1.344-.768 2.88 7.68c-.384.448-.96 1.024-1.728 1.728-.704.64-2.56 1.536-5.568 2.688-2.944 1.088-6.304 1.632-10.08 1.632zm6.048-30.24c.128-.896.192-1.984.192-3.264 0-1.28-.512-2.624-1.536-4.032-1.024-1.472-2.816-2.208-5.376-2.208-2.495 0-4.415.768-5.76 2.304-1.343 1.536-2.24 4.128-2.687 7.776l15.168-.576zM348.175 63c3.52-.768 6.688-1.152 9.504-1.152s5.152.064 7.008.192v4.8c1.6-1.344 3.712-2.432 6.336-3.264 2.688-.896 5.248-1.344 7.68-1.344 6.272 0 10.656 1.472 13.152 4.416 2.56 2.944 3.84 8.032 3.84 15.264v18.432c2.496.96 4.256 2.048 5.28 3.264l-.96 7.392h-22.08l-.96-7.392c.896-1.216 2.656-2.304 5.28-3.264V81.336c0-3.456-.576-5.76-1.728-6.912-1.088-1.216-3.072-1.824-5.952-1.824s-5.76 1.024-8.64 3.072v24.672c2.496.96 4.256 2.048 5.28 3.264l-.96 7.392h-22.08l-.96-7.392c.896-1.216 2.656-2.304 5.28-3.264V73.656c-2.24-.768-4-1.856-5.28-3.264l.96-7.392zm73.606-12.096V63h13.728v8.064h-13.728v24.288c0 2.048.288 3.552.864 4.512.576.896 1.952 1.344 4.128 1.344s4.512-.48 7.008-1.44l2.88 7.488c-4.928 2.496-9.984 3.744-15.168 3.744-5.12 0-8.608-1.088-10.464-3.264-1.792-2.24-2.688-5.472-2.688-9.696V71.064h-4.32l-1.056-5.856c1.024-1.216 3.136-2.432 6.336-3.648.768-5.248 2.592-8.8 5.472-10.656h7.008zM242.595 105.681l-44.177-84.536 8.27-15.825c.96-1.837.14-4.052-1.834-4.946-1.973-.894-4.35-.13-5.31 1.708l-5.545 10.609-5.544-10.609c-.96-1.837-3.337-2.602-5.31-1.708-1.973.894-2.794 3.109-1.834 4.947l8.27 15.825-44.177 84.535c-1.28 2.45.636 5.319 3.572 5.319h90.047c2.926 0 4.857-2.86 3.572-5.319zm-39.326-2.081H184.73V87.567c0-4.76 4.158-8.633 9.27-8.633 5.11 0 9.27 3.873 9.27 8.633V103.6zm7.946 0V87.567c0-8.84-7.723-16.033-17.215-16.033-9.493 0-17.215 7.192-17.215 16.033V103.6h-21.457L194 29.6l38.671 74h-21.456z" fill="#fff"/></svg>