<svg xmlns="http://www.w3.org/2000/svg" viewBox="0 0 512 512"><path d="M256 0c-44.112 0-80 35.888-80 80 0 4.416 3.576 8 8 8s8-3.584 8-8c0-35.288 28.712-64 64-64s64 28.712 64 64c0 4.416 3.576 8 8 8s8-3.584 8-8c0-44.112-35.888-80-80-80z"/><path d="M184 72c-4.424 0-8 3.584-8 8v72c0 4.416 3.576 8 8 8s8-3.584 8-8V80c0-4.416-3.576-8-8-8z"/><path d="M336 144H176c-4.424 0-8 3.584-8 8s3.576 8 8 8h160c4.424 0 8-3.584 8-8s-3.576-8-8-8z"/><path d="M328 72c-4.424 0-8 3.584-8 8v72c0 4.416 3.576 8 8 8s8-3.584 8-8V80c0-4.416-3.576-8-8-8zM228 48c-11.032 0-20 8.976-20 20s8.968 20 20 20 20-8.976 20-20-8.968-20-20-20zm0 24c-2.2 0-4-1.792-4-4s1.8-4 4-4 4 1.792 4 4-1.8 4-4 4zM284 48c-11.032 0-20 8.976-20 20s8.968 20 20 20 20-8.976 20-20-8.968-20-20-20zm0 24c-2.2 0-4-1.792-4-4s1.8-4 4-4 4 1.792 4 4-1.8 4-4 4zM288 112h-64c-4.424 0-8 3.584-8 8s3.576 8 8 8h64c4.424 0 8-3.584 8-8s-3.576-8-8-8z"/><path d="M288 104c-4.424 0-8 3.584-8 8v8c0 4.416 3.576 8 8 8s8-3.584 8-8v-8c0-4.416-3.576-8-8-8zM224 104c-4.424 0-8 3.584-8 8v8c0 4.416 3.576 8 8 8s8-3.584 8-8v-8c0-4.416-3.576-8-8-8zM366.84 156.008c-6.928-7.736-16.696-12-27.512-12H172.656c-10.808 0-20.584 4.256-27.512 12-6.936 7.736-10.088 17.92-8.904 28.68l16.936 152.392c2.384 21.456 21.888 38.92 43.488 38.92h118.672c21.6 0 41.104-17.464 43.472-38.92l16.936-152.392c1.192-10.752-1.968-20.936-8.904-28.68zm-6.992 26.912l-16.936 152.392C341.44 348.696 328.808 360 315.336 360H196.664c-13.472 0-26.104-11.304-27.576-24.696L152.152 182.92c-.688-6.168 1.064-11.944 4.92-16.248 3.848-4.304 9.392-6.672 15.592-6.672h166.672c6.2 0 11.744 2.368 15.592 6.672 3.856 4.304 5.608 10.08 4.92 16.248z"/><path d="M192 359.648c-4.424 0-8 3.576-8 8v104.48c0 4.424 3.576 8 8 8s8-3.584 8-8v-104.48c0-4.424-3.576-8-8-8zM320 359.664c-4.424 0-8 3.576-8 8v104.12c0 4.424 3.576 8 8 8s8-3.584 8-8v-104.12c0-4.424-3.576-8-8-8zM240 360c-4.424 0-8 3.576-8 8v104.128c0 4.424 3.576 8 8 8s8-3.584 8-8V368c0-4.424-3.576-8-8-8zM272 360c-4.424 0-8 3.576-8 8v104c0 4.424 3.576 8 8 8s8-3.576 8-8V368c0-4.424-3.576-8-8-8z"/><path d="M216 456c-26.472 0-48 21.528-48 48 0 4.424 3.576 8 8 8s8-3.576 8-8c0-17.648 14.352-32 32-32s32 14.352 32 32c0 4.424 3.576 8 8 8s8-3.576 8-8c0-26.472-21.528-48-48-48z"/><path d="M256 496h-80c-4.424 0-8 3.576-8 8s3.576 8 8 8h80c4.424 0 8-3.576 8-8s-3.576-8-8-8z"/><path d="M296 456c-26.472 0-48 21.528-48 48 0 4.424 3.576 8 8 8s8-3.576 8-8c0-17.648 14.352-32 32-32s32 14.352 32 32c0 4.424 3.576 8 8 8s8-3.576 8-8c0-26.472-21.528-48-48-48z"/><path d="M336 496h-80c-4.424 0-8 3.576-8 8s3.576 8 8 8h80c4.424 0 8-3.576 8-8s-3.576-8-8-8zM240 392h-48c-4.424 0-8 3.576-8 8s3.576 8 8 8h48c4.424 0 8-3.576 8-8s-3.576-8-8-8zM240 424h-48c-4.424 0-8 3.576-8 8s3.576 8 8 8h48c4.424 0 8-3.576 8-8s-3.576-8-8-8zM320 392h-48c-4.424 0-8 3.576-8 8s3.576 8 8 8h48c4.424 0 8-3.576 8-8s-3.576-8-8-8zM320 424h-48c-4.424 0-8 3.576-8 8s3.576 8 8 8h48c4.424 0 8-3.576 8-8s-3.576-8-8-8zM128 160c-26.472 0-48 21.528-48 48 0 4.416 3.576 8 8 8s8-3.584 8-8c0-17.648 14.352-32 32-32 4.424 0 8-3.584 8-8s-3.576-8-8-8zM128 192c-8.824 0-16 7.176-16 16 0 4.416 3.576 8 8 8s8-3.584 8-8c4.424 0 8-3.584 8-8s-3.576-8-8-8z"/><path d="M146.704 160H128c-4.424 0-8 3.584-8 8s3.576 8 8 8h18.704c4.424 0 8-3.584 8-8s-3.576-8-8-8zM145.504 192H128c-4.424 0-8 3.584-8 8s3.576 8 8 8h17.504c4.416 0 8-3.584 8-8s-3.576-8-8-8z"/><path d="M120 200c-4.424 0-8 3.584-8 8v92.296c0 4.424 3.576 8 8 8s8-3.576 8-8V208c0-4.416-3.576-8-8-8zM88 200c-4.424 0-8 3.584-8 8v92.296c0 4.424 3.576 8 8 8s8-3.576 8-8V208c0-4.416-3.576-8-8-8z"/><path d="M104 288c-22.056 0-40 17.944-40 40 0 4.424 3.576 8 8 8s8-3.576 8-8c0-13.232 10.768-24 24-24s24 10.768 24 24c0 4.424 3.576 8 8 8s8-3.576 8-8c0-22.056-17.944-40-40-40z"/><path d="M72 320c-4.424 0-8 3.576-8 8v32c0 4.424 3.576 8 8 8s8-3.576 8-8v-32c0-4.424-3.576-8-8-8zM120 320c-4.424 0-8 3.576-8 8v32c0 4.424 3.576 8 8 8s8-3.576 8-8v-32c0-4.424-3.576-8-8-8z"/><path d="M120 352H72c-4.424 0-8 3.576-8 8s3.576 8 8 8h48c4.424 0 8-3.576 8-8s-3.576-8-8-8zM128 196.688l-22.504-22.504c-3.128-3.128-8.184-3.128-11.312 0s-3.128 8.184 0 11.312L116.688 208a7.978 7.978 0 0 0 5.656 2.344A7.978 7.978 0 0 0 128 208a7.991 7.991 0 0 0 0-11.312zM120 224H88c-4.424 0-8 3.584-8 8s3.576 8 8 8h32c4.424 0 8-3.584 8-8s-3.576-8-8-8zM120 264H88c-4.424 0-8 3.576-8 8s3.576 8 8 8h32c4.424 0 8-3.576 8-8s-3.576-8-8-8zM136 320h-16c-4.424 0-8 3.576-8 8s3.576 8 8 8h16c4.424 0 8-3.576 8-8s-3.576-8-8-8zM384 160c-4.424 0-8 3.584-8 8s3.576 8 8 8c17.648 0 32 14.352 32 32 0 4.416 3.576 8 8 8s8-3.584 8-8c0-26.472-21.528-48-48-48zM384 192c-4.424 0-8 3.568-8 7.992s3.576 8 8 8V208c0 4.416 3.576 8 8 8s8-3.584 8-8c0-8.824-7.176-16-16-16z"/><path d="M384 160h-18.704c-4.424 0-8 3.584-8 8s3.576 8 8 8H384c4.424 0 8-3.584 8-8s-3.576-8-8-8zM384 192h-17.504c-4.424 0-8 3.584-8 8s3.576 8 8 8H384c4.424 0 8-3.584 8-8s-3.576-8-8-8z"/><path d="M392 200c-4.424 0-8 3.584-8 8v92.296c0 4.424 3.576 8 8 8s8-3.576 8-8V208c0-4.416-3.576-8-8-8zM424 200c-4.424 0-8 3.584-8 8v92.296c0 4.424 3.576 8 8 8s8-3.576 8-8V208c0-4.416-3.576-8-8-8z"/><path d="M408 288c-22.056 0-40 17.944-40 40 0 4.424 3.576 8 8 8s8-3.576 8-8c0-13.232 10.768-24 24-24s24 10.768 24 24c0 4.424 3.576 8 8 8s8-3.576 8-8c0-22.056-17.944-40-40-40z"/><path d="M440 320c-4.424 0-8 3.576-8 8v32c0 4.424 3.576 8 8 8s8-3.576 8-8v-32c0-4.424-3.576-8-8-8zM392 320c-4.424 0-8 3.576-8 8v32c0 4.424 3.576 8 8 8s8-3.576 8-8v-32c0-4.424-3.576-8-8-8z"/><path d="M440 352h-48c-4.424 0-8 3.576-8 8s3.576 8 8 8h48c4.424 0 8-3.576 8-8s-3.576-8-8-8zM417.816 174.184a7.991 7.991 0 0 0-11.312 0L384 196.688A7.991 7.991 0 0 0 384 208a7.978 7.978 0 0 0 5.656 2.344 7.978 7.978 0 0 0 5.656-2.344l22.504-22.504a7.991 7.991 0 0 0 0-11.312zM424 224h-32c-4.424 0-8 3.584-8 8s3.576 8 8 8h32c4.424 0 8-3.584 8-8s-3.576-8-8-8zM424 264h-32c-4.424 0-8 3.576-8 8s3.576 8 8 8h32c4.424 0 8-3.576 8-8s-3.576-8-8-8zM392 320h-16c-4.424 0-8 3.576-8 8s3.576 8 8 8h16c4.424 0 8-3.576 8-8s-3.576-8-8-8zM312 256H200c-4.424 0-8 3.584-8 8v64c0 4.424 3.576 8 8 8h112c4.424 0 8-3.576 8-8v-64c0-4.416-3.576-8-8-8zm-8 64h-96v-48h96v48z"/><path d="M288.24 288h-.088c-4.416 0-7.952 3.576-7.952 8s3.616 8 8.04 8c4.416 0 8-3.576 8-8s-3.584-8-8-8zM304 184h-96c-13.232 0-24 10.768-24 24s10.768 24 24 24h96c13.232 0 24-10.768 24-24s-10.768-24-24-24zm0 32h-96c-4.416 0-8-3.592-8-8s3.584-8 8-8h96c4.416 0 8 3.592 8 8s-3.584 8-8 8z"/><path d="M224 184c-4.424 0-8 3.584-8 8v32c0 4.416 3.576 8 8 8s8-3.584 8-8v-32c0-4.416-3.576-8-8-8zM256 184c-4.424 0-8 3.584-8 8v32c0 4.416 3.576 8 8 8s8-3.584 8-8v-32c0-4.416-3.576-8-8-8zM288 184c-4.424 0-8 3.584-8 8v32c0 4.416 3.576 8 8 8s8-3.584 8-8v-32c0-4.416-3.576-8-8-8z"/></svg>