<svg height="584" viewBox="-4 0 438 438.417" width="584" xmlns="http://www.w3.org/2000/svg"><path d="M389.8 111.418h-39.593v-98.2a10.222 10.222 0 0 0-13.578-9.426l-85.73 30.384-31.583-31.278c-3.914-3.875-10.222-3.863-14.117.032l-73.875 73.867-100 35.8c-18.133 4.227-31 20.333-31.117 38.95v247.289c0 22.055 18.355 39.582 40.41 39.582h349.184c22.054 0 40.406-17.527 40.406-39.582v-247.29c0-22.054-18.352-40.128-40.406-40.128zm-59.593-84.043v84.043h-1.285l-62.137-61.676zM212.289 23.98l88.219 87.438H124.855zM96.57 111.418h-2.879l4.489-1.61zm293.23 307H40.618c-11.027 0-20.41-8.555-20.41-19.582v-247.29c0-11.03 9.383-20.128 20.41-20.128h349.184c11.027 0 20.406 9.098 20.406 20.129v49.871h-69.46c-27.282-.078-49.462 21.98-49.54 49.262V299.277c0 27.57 21.969 50.141 49.54 50.141h69.46v49.418c0 11.027-9.379 19.582-20.406 19.582zm20.407-197v108h-69.46c-16.54 0-29.54-13.602-29.54-30.14v-48.173c-.172-16.222 12.84-29.515 29.063-29.687h.476zm0 0"/><path d="M329.45 275.563c0 17.535 14.214 31.75 31.75 31.75 17.534 0 31.75-14.215 31.75-31.75s-14.216-31.75-31.75-31.75c-17.536 0-31.75 14.214-31.75 31.75zm31.75-11.75c6.488 0 11.75 5.261 11.75 11.75 0 6.492-5.262 11.75-11.75 11.75-6.493 0-11.75-5.258-11.75-11.75 0-6.489 5.257-11.75 11.75-11.75zm0 0M221.023 310.262l-6.027 1.851a24.192 24.192 0 0 1-18.207-1.601 44.153 44.153 0 0 0-22.187-4.817 51.516 51.516 0 0 0 3.293-14.457l.023-.297c.223-2.832.348-5.671.375-8.52h16.914c5.523 0 10-4.48 10-10 0-5.523-4.477-10-10-10H176.84a126.284 126.284 0 0 0-2.043-10.413 59.875 59.875 0 0 1-1.926-13.649 17.534 17.534 0 0 1 1.223-6.496 16.06 16.06 0 0 1 3.426-5.351 15.872 15.872 0 0 1 5.425-3.637 18.197 18.197 0 0 1 7.118-1.328c6.398 0 14.027 1.351 16.242 11.887 1.16 5.379 6.449 8.808 11.832 7.675 5.383-1.129 8.843-6.398 7.738-11.789-3.707-17.652-16.762-27.773-35.813-27.773a38.04 38.04 0 0 0-14.878 2.898 35.774 35.774 0 0 0-19.668 20.008 37.558 37.558 0 0 0-2.645 13.902 79.49 79.49 0 0 0 2.484 18.348c.458 1.899.852 3.805 1.2 5.715h-15.348c-5.52 0-10 4.477-10 10 0 5.52 4.48 10 10 10h17.063c-.028 2.309-.106 4.617-.29 6.91l-.023.3a31.472 31.472 0 0 1-5.984 16.118l-4.598 6.281a9.99 9.99 0 0 0-.566 10.953 9.986 9.986 0 0 0 9.82 4.883l17.086-2.043c4.8-.582 9.668.29 13.969 2.5a44.102 44.102 0 0 0 33.175 2.914l6.032-1.851c5.277-1.617 8.246-7.211 6.625-12.492s-7.211-8.246-12.493-6.63zm0 0"/></svg>